<mxfile host="Electron" agent="Mozilla/5.0 (Macintosh; Intel Mac OS X 10_15_7) AppleWebKit/537.36 (KHTML, like Gecko) draw.io/26.0.4 Chrome/128.0.6613.186 Electron/32.2.5 Safari/537.36" version="26.0.4">
  <diagram id="4mf2qkvwDCQgQ1x4O-1k" name="Page-1">
    <mxGraphModel dx="3340" dy="1920" grid="1" gridSize="10" guides="1" tooltips="1" connect="1" arrows="1" fold="1" page="1" pageScale="1" pageWidth="850" pageHeight="1100" math="0" shadow="0">
      <root>
        <mxCell id="0" />
        <mxCell id="1" parent="0" />
        <mxCell id="M6nRL8EeRbIrklFfgZ3Z-1" value="Q" style="whiteSpace=wrap;html=1;aspect=fixed;fontSize=17;fontFamily=Verdana;fontStyle=1;fontColor=#AFB9C7;fillColor=#383E47;rounded=1;strokeColor=#E8B256;strokeWidth=2;" vertex="1" parent="1">
          <mxGeometry x="440" y="321" width="40" height="40" as="geometry" />
        </mxCell>
        <mxCell id="M6nRL8EeRbIrklFfgZ3Z-2" value="W" style="whiteSpace=wrap;html=1;aspect=fixed;fontSize=17;fontFamily=Verdana;fontStyle=1;fontColor=#AFB9C7;fillColor=#383E47;rounded=1;strokeColor=#E8B256;strokeWidth=2;" vertex="1" parent="1">
          <mxGeometry x="486" y="307" width="40" height="40" as="geometry" />
        </mxCell>
        <mxCell id="M6nRL8EeRbIrklFfgZ3Z-3" value="E" style="whiteSpace=wrap;html=1;aspect=fixed;fontSize=17;fontFamily=Verdana;fontStyle=1;fontColor=#AFB9C7;fillColor=#383E47;rounded=1;strokeColor=#E8B256;strokeWidth=2;" vertex="1" parent="1">
          <mxGeometry x="533" y="300" width="40" height="40" as="geometry" />
        </mxCell>
        <mxCell id="M6nRL8EeRbIrklFfgZ3Z-4" value="R" style="whiteSpace=wrap;html=1;aspect=fixed;fontSize=17;fontFamily=Verdana;fontStyle=1;fontColor=#AFB9C7;fillColor=#383E47;rounded=1;strokeColor=#E8B256;strokeWidth=2;" vertex="1" parent="1">
          <mxGeometry x="580" y="303" width="40" height="40" as="geometry" />
        </mxCell>
        <mxCell id="M6nRL8EeRbIrklFfgZ3Z-5" value="T" style="whiteSpace=wrap;html=1;aspect=fixed;fontSize=17;fontFamily=Verdana;fontStyle=1;fontColor=#AFB9C7;fillColor=#383E47;rounded=1;strokeColor=#E8B256;strokeWidth=2;" vertex="1" parent="1">
          <mxGeometry x="627" y="307" width="40" height="40" as="geometry" />
        </mxCell>
        <mxCell id="M6nRL8EeRbIrklFfgZ3Z-6" value="A" style="whiteSpace=wrap;html=1;aspect=fixed;fontSize=17;fontFamily=Verdana;fontStyle=1;fontColor=#AFB9C7;fillColor=#383E47;rounded=1;strokeColor=#E8B256;strokeWidth=2;" vertex="1" parent="1">
          <mxGeometry x="440" y="367" width="40" height="40" as="geometry" />
        </mxCell>
        <mxCell id="M6nRL8EeRbIrklFfgZ3Z-7" value="S" style="whiteSpace=wrap;html=1;aspect=fixed;fontSize=17;fontFamily=Verdana;fontStyle=1;fontColor=#AFB9C7;fillColor=#383E47;rounded=1;strokeColor=#E8B256;strokeWidth=2;" vertex="1" parent="1">
          <mxGeometry x="486" y="353" width="40" height="40" as="geometry" />
        </mxCell>
        <mxCell id="M6nRL8EeRbIrklFfgZ3Z-8" value="D" style="whiteSpace=wrap;html=1;aspect=fixed;fontSize=17;fontFamily=Verdana;fontStyle=1;fontColor=#AFB9C7;fillColor=#383E47;rounded=1;strokeColor=#E8B256;strokeWidth=2;" vertex="1" parent="1">
          <mxGeometry x="533" y="346" width="40" height="40" as="geometry" />
        </mxCell>
        <mxCell id="M6nRL8EeRbIrklFfgZ3Z-9" value="F" style="whiteSpace=wrap;html=1;aspect=fixed;fontSize=17;fontFamily=Verdana;fontStyle=1;fontColor=#AFB9C7;fillColor=#383E47;rounded=1;strokeColor=#E8B256;strokeWidth=2;" vertex="1" parent="1">
          <mxGeometry x="580" y="349" width="40" height="40" as="geometry" />
        </mxCell>
        <mxCell id="M6nRL8EeRbIrklFfgZ3Z-10" value="G" style="whiteSpace=wrap;html=1;aspect=fixed;fontSize=17;fontFamily=Verdana;fontStyle=1;fontColor=#AFB9C7;fillColor=#383E47;rounded=1;strokeColor=#E8B256;strokeWidth=2;" vertex="1" parent="1">
          <mxGeometry x="627" y="353" width="40" height="40" as="geometry" />
        </mxCell>
        <mxCell id="M6nRL8EeRbIrklFfgZ3Z-11" value="Z" style="whiteSpace=wrap;html=1;aspect=fixed;fontSize=17;fontFamily=Verdana;fontStyle=1;fontColor=#AFB9C7;fillColor=#383E47;rounded=1;strokeColor=#E8B256;strokeWidth=2;" vertex="1" parent="1">
          <mxGeometry x="440" y="413" width="40" height="40" as="geometry" />
        </mxCell>
        <mxCell id="M6nRL8EeRbIrklFfgZ3Z-12" value="X" style="whiteSpace=wrap;html=1;aspect=fixed;fontSize=17;fontFamily=Verdana;fontStyle=1;fontColor=#AFB9C7;fillColor=#383E47;rounded=1;strokeColor=#E8B256;strokeWidth=2;" vertex="1" parent="1">
          <mxGeometry x="486" y="399" width="40" height="40" as="geometry" />
        </mxCell>
        <mxCell id="M6nRL8EeRbIrklFfgZ3Z-13" value="C" style="whiteSpace=wrap;html=1;aspect=fixed;fontSize=17;fontFamily=Verdana;fontStyle=1;fontColor=#AFB9C7;fillColor=#383E47;rounded=1;strokeColor=#E8B256;strokeWidth=2;" vertex="1" parent="1">
          <mxGeometry x="533" y="392" width="40" height="40" as="geometry" />
        </mxCell>
        <mxCell id="M6nRL8EeRbIrklFfgZ3Z-14" value="V" style="whiteSpace=wrap;html=1;aspect=fixed;fontSize=17;fontFamily=Verdana;fontStyle=1;fontColor=#AFB9C7;fillColor=#383E47;rounded=1;strokeColor=#E8B256;strokeWidth=2;" vertex="1" parent="1">
          <mxGeometry x="580" y="395" width="40" height="40" as="geometry" />
        </mxCell>
        <mxCell id="M6nRL8EeRbIrklFfgZ3Z-15" value="B" style="whiteSpace=wrap;html=1;aspect=fixed;fontSize=17;fontFamily=Verdana;fontStyle=1;fontColor=#AFB9C7;fillColor=#383E47;rounded=1;strokeColor=#E8B256;strokeWidth=2;" vertex="1" parent="1">
          <mxGeometry x="627" y="399" width="40" height="40" as="geometry" />
        </mxCell>
        <mxCell id="M6nRL8EeRbIrklFfgZ3Z-16" value="&lt;font style=&quot;font-size: 14px;&quot;&gt;&lt;span style=&quot;font-size: 17px;&quot;&gt;⏎&lt;/span&gt;&lt;br&gt;&lt;/font&gt;" style="whiteSpace=wrap;html=1;aspect=fixed;rotation=0;fontSize=17;fontFamily=Verdana;fontStyle=1;fillColor=#383E47;strokeColor=#E8B256;fontColor=#AFB9C7;rounded=1;strokeWidth=2;" vertex="1" parent="1">
          <mxGeometry x="609" y="449" width="40" height="40" as="geometry" />
        </mxCell>
        <mxCell id="M6nRL8EeRbIrklFfgZ3Z-17" value="Y" style="whiteSpace=wrap;html=1;aspect=fixed;fontSize=17;fontFamily=Verdana;fontStyle=1;fontColor=#AFB9C7;fillColor=#383E47;rounded=1;strokeColor=#E8B256;strokeWidth=2;" vertex="1" parent="1">
          <mxGeometry x="1110" y="332.5" width="40" height="40" as="geometry" />
        </mxCell>
        <mxCell id="M6nRL8EeRbIrklFfgZ3Z-18" value="U" style="whiteSpace=wrap;html=1;aspect=fixed;fontSize=17;fontFamily=Verdana;fontStyle=1;fontColor=#AFB9C7;fillColor=#383E47;rounded=1;strokeColor=#E8B256;strokeWidth=2;" vertex="1" parent="1">
          <mxGeometry x="1150" y="324.5" width="40" height="40" as="geometry" />
        </mxCell>
        <mxCell id="M6nRL8EeRbIrklFfgZ3Z-19" value="I" style="whiteSpace=wrap;html=1;aspect=fixed;fontSize=17;fontFamily=Verdana;fontStyle=1;fontColor=#AFB9C7;fillColor=#383E47;rounded=1;strokeColor=#E8B256;strokeWidth=2;" vertex="1" parent="1">
          <mxGeometry x="1190" y="309.5" width="40" height="40" as="geometry" />
        </mxCell>
        <mxCell id="M6nRL8EeRbIrklFfgZ3Z-20" value="O" style="whiteSpace=wrap;html=1;aspect=fixed;fontSize=17;fontFamily=Verdana;fontStyle=1;fontColor=#AFB9C7;fillColor=#383E47;rounded=1;strokeColor=#E8B256;strokeWidth=2;" vertex="1" parent="1">
          <mxGeometry x="1230" y="324.5" width="40" height="40" as="geometry" />
        </mxCell>
        <mxCell id="M6nRL8EeRbIrklFfgZ3Z-21" value="P" style="whiteSpace=wrap;html=1;aspect=fixed;fontSize=17;fontFamily=Verdana;fontStyle=1;fontColor=#AFB9C7;fillColor=#383E47;rounded=1;strokeColor=#E8B256;strokeWidth=2;" vertex="1" parent="1">
          <mxGeometry x="1270" y="349.5" width="40" height="40" as="geometry" />
        </mxCell>
        <mxCell id="M6nRL8EeRbIrklFfgZ3Z-22" value="H" style="whiteSpace=wrap;html=1;aspect=fixed;fontSize=17;fontFamily=Verdana;fontStyle=1;fontColor=#AFB9C7;fillColor=#383E47;rounded=1;strokeColor=#E8B256;strokeWidth=2;" vertex="1" parent="1">
          <mxGeometry x="1110" y="372.5" width="40" height="40" as="geometry" />
        </mxCell>
        <mxCell id="M6nRL8EeRbIrklFfgZ3Z-23" value="J" style="whiteSpace=wrap;html=1;aspect=fixed;fontSize=17;fontFamily=Verdana;fontStyle=1;fontColor=#AFB9C7;fillColor=#383E47;rounded=1;strokeColor=#E8B256;strokeWidth=2;" vertex="1" parent="1">
          <mxGeometry x="1150" y="364.5" width="40" height="40" as="geometry" />
        </mxCell>
        <mxCell id="M6nRL8EeRbIrklFfgZ3Z-24" value="K" style="whiteSpace=wrap;html=1;aspect=fixed;fontSize=17;fontFamily=Verdana;fontStyle=1;fontColor=#AFB9C7;fillColor=#383E47;rounded=1;strokeColor=#E8B256;strokeWidth=2;" vertex="1" parent="1">
          <mxGeometry x="1190" y="349.5" width="40" height="40" as="geometry" />
        </mxCell>
        <mxCell id="M6nRL8EeRbIrklFfgZ3Z-25" value="L" style="whiteSpace=wrap;html=1;aspect=fixed;fontSize=17;fontFamily=Verdana;fontStyle=1;fontColor=#AFB9C7;fillColor=#383E47;rounded=1;strokeColor=#E8B256;strokeWidth=2;" vertex="1" parent="1">
          <mxGeometry x="1230" y="364.5" width="40" height="40" as="geometry" />
        </mxCell>
        <mxCell id="M6nRL8EeRbIrklFfgZ3Z-26" value=";" style="whiteSpace=wrap;html=1;aspect=fixed;fontSize=17;fontFamily=Verdana;fontStyle=1;fontColor=#AFB9C7;fillColor=#383E47;rounded=1;strokeColor=#E8B256;strokeWidth=2;" vertex="1" parent="1">
          <mxGeometry x="1270" y="389.5" width="40" height="40" as="geometry" />
        </mxCell>
        <mxCell id="M6nRL8EeRbIrklFfgZ3Z-27" value="N" style="whiteSpace=wrap;html=1;aspect=fixed;fontSize=17;fontFamily=Verdana;fontStyle=1;fontColor=#AFB9C7;fillColor=#383E47;rounded=1;strokeColor=#E8B256;strokeWidth=2;" vertex="1" parent="1">
          <mxGeometry x="1110" y="412.5" width="40" height="40" as="geometry" />
        </mxCell>
        <mxCell id="M6nRL8EeRbIrklFfgZ3Z-28" value="M" style="whiteSpace=wrap;html=1;aspect=fixed;fontSize=17;fontFamily=Verdana;fontStyle=1;fontColor=#AFB9C7;fillColor=#383E47;rounded=1;strokeColor=#E8B256;strokeWidth=2;" vertex="1" parent="1">
          <mxGeometry x="1150" y="404.5" width="40" height="40" as="geometry" />
        </mxCell>
        <mxCell id="M6nRL8EeRbIrklFfgZ3Z-29" value="," style="whiteSpace=wrap;html=1;aspect=fixed;fontSize=17;fontFamily=Verdana;fontStyle=1;fontColor=#AFB9C7;fillColor=#383E47;rounded=1;strokeColor=#E8B256;strokeWidth=2;" vertex="1" parent="1">
          <mxGeometry x="1190" y="389.5" width="40" height="40" as="geometry" />
        </mxCell>
        <mxCell id="M6nRL8EeRbIrklFfgZ3Z-30" value="." style="whiteSpace=wrap;html=1;aspect=fixed;fontSize=17;fontFamily=Verdana;fontStyle=1;fontColor=#AFB9C7;fillColor=#383E47;rounded=1;strokeColor=#E8B256;strokeWidth=2;" vertex="1" parent="1">
          <mxGeometry x="1230" y="404.5" width="40" height="40" as="geometry" />
        </mxCell>
        <mxCell id="M6nRL8EeRbIrklFfgZ3Z-31" value="&lt;font style=&quot;font-size: 11px;&quot;&gt;SHFT&lt;/font&gt;" style="whiteSpace=wrap;html=1;aspect=fixed;fontSize=17;fontFamily=Verdana;fontStyle=1;fontColor=#AFB9C7;fillColor=#383E47;rounded=1;strokeColor=#E8B256;strokeWidth=2;" vertex="1" parent="1">
          <mxGeometry x="1300" y="470" width="40" height="40" as="geometry" />
        </mxCell>
        <mxCell id="M6nRL8EeRbIrklFfgZ3Z-32" value="&lt;span style=&quot;color: rgb(175, 185, 199);&quot;&gt;␣&lt;/span&gt;" style="whiteSpace=wrap;html=1;aspect=fixed;rotation=-15;fontSize=17;fontFamily=Verdana;fontStyle=1;fillColor=#383E47;strokeColor=#E8B256;fontColor=#ffffff;rounded=1;labelBackgroundColor=none;" vertex="1" parent="1">
          <mxGeometry x="1130" y="458.5" width="40" height="40" as="geometry" />
        </mxCell>
        <mxCell id="M6nRL8EeRbIrklFfgZ3Z-33" value="1" style="whiteSpace=wrap;html=1;aspect=fixed;fontSize=17;fontFamily=Verdana;fontStyle=1;fontColor=#AFB9C7;fillColor=#383E47;rounded=1;strokeColor=#E8B256;strokeWidth=2;" vertex="1" parent="1">
          <mxGeometry x="440" y="274.5" width="40" height="40" as="geometry" />
        </mxCell>
        <mxCell id="M6nRL8EeRbIrklFfgZ3Z-34" value="2" style="whiteSpace=wrap;html=1;aspect=fixed;fontSize=17;fontFamily=Verdana;fontStyle=1;fontColor=#AFB9C7;fillColor=#383E47;rounded=1;strokeColor=#E8B256;strokeWidth=2;" vertex="1" parent="1">
          <mxGeometry x="486" y="260.5" width="40" height="40" as="geometry" />
        </mxCell>
        <mxCell id="M6nRL8EeRbIrklFfgZ3Z-35" value="3" style="whiteSpace=wrap;html=1;aspect=fixed;fontSize=17;fontFamily=Verdana;fontStyle=1;fontColor=#AFB9C7;fillColor=#383E47;rounded=1;strokeColor=#E8B256;strokeWidth=2;" vertex="1" parent="1">
          <mxGeometry x="533" y="253.5" width="40" height="40" as="geometry" />
        </mxCell>
        <mxCell id="M6nRL8EeRbIrklFfgZ3Z-36" value="4" style="whiteSpace=wrap;html=1;aspect=fixed;fontSize=17;fontFamily=Verdana;fontStyle=1;fontColor=#AFB9C7;fillColor=#383E47;rounded=1;strokeColor=#E8B256;strokeWidth=2;" vertex="1" parent="1">
          <mxGeometry x="580" y="256.5" width="40" height="40" as="geometry" />
        </mxCell>
        <mxCell id="M6nRL8EeRbIrklFfgZ3Z-37" value="5" style="whiteSpace=wrap;html=1;aspect=fixed;fontSize=17;fontFamily=Verdana;fontStyle=1;fontColor=#AFB9C7;fillColor=#383E47;rounded=1;strokeColor=#E8B256;strokeWidth=2;" vertex="1" parent="1">
          <mxGeometry x="627" y="260.5" width="40" height="40" as="geometry" />
        </mxCell>
        <mxCell id="M6nRL8EeRbIrklFfgZ3Z-38" value="DEL" style="whiteSpace=wrap;html=1;aspect=fixed;fontSize=14;fontFamily=Verdana;fontStyle=1;fontColor=#AFB9C7;fillColor=#383E47;rounded=1;strokeColor=#E8B256;strokeWidth=2;" vertex="1" parent="1">
          <mxGeometry x="394" y="325" width="40" height="40" as="geometry" />
        </mxCell>
        <mxCell id="M6nRL8EeRbIrklFfgZ3Z-39" value="HYPER" style="whiteSpace=wrap;html=1;aspect=fixed;fontSize=10;fontFamily=Verdana;fontStyle=1;fontColor=#AFB9C7;fillColor=#383E47;rounded=1;strokeColor=#E8B256;strokeWidth=2;" vertex="1" parent="1">
          <mxGeometry x="394" y="371" width="40" height="40" as="geometry" />
        </mxCell>
        <mxCell id="M6nRL8EeRbIrklFfgZ3Z-40" value="MEH" style="whiteSpace=wrap;html=1;aspect=fixed;fontSize=17;fontFamily=Verdana;fontStyle=1;fontColor=#AFB9C7;fillColor=#383E47;rounded=1;strokeColor=#E8B256;strokeWidth=2;" vertex="1" parent="1">
          <mxGeometry x="394" y="417" width="40" height="40" as="geometry" />
        </mxCell>
        <mxCell id="M6nRL8EeRbIrklFfgZ3Z-41" value="ESC" style="whiteSpace=wrap;html=1;aspect=fixed;fontSize=15;fontFamily=Verdana;fontStyle=1;fontColor=#AFB9C7;fillColor=#383E47;rounded=1;strokeColor=#E8B256;strokeWidth=2;" vertex="1" parent="1">
          <mxGeometry x="394" y="278.5" width="40" height="40" as="geometry" />
        </mxCell>
        <mxCell id="M6nRL8EeRbIrklFfgZ3Z-42" value="&lt;font style=&quot;font-size: 14px;&quot;&gt;&lt;span style=&quot;font-size: 17px;&quot;&gt;1&lt;/span&gt;&lt;br&gt;&lt;/font&gt;" style="whiteSpace=wrap;html=1;aspect=fixed;rotation=0;fontSize=17;fontFamily=Verdana;fontStyle=1;fillColor=#383E47;strokeColor=#E8B256;fontColor=#AFB9C7;rounded=1;strokeWidth=2;" vertex="1" parent="1">
          <mxGeometry x="560" y="449" width="40" height="40" as="geometry" />
        </mxCell>
        <mxCell id="M6nRL8EeRbIrklFfgZ3Z-43" value="&lt;font style=&quot;font-size: 14px;&quot;&gt;&lt;span style=&quot;font-size: 17px;&quot;&gt;2&lt;/span&gt;&lt;br&gt;&lt;/font&gt;" style="whiteSpace=wrap;html=1;aspect=fixed;rotation=0;fontSize=17;fontFamily=Verdana;fontStyle=1;fillColor=#383E47;strokeColor=#E8B256;fontColor=#AFB9C7;rounded=1;strokeWidth=2;" vertex="1" parent="1">
          <mxGeometry x="512" y="449" width="40" height="40" as="geometry" />
        </mxCell>
        <mxCell id="M6nRL8EeRbIrklFfgZ3Z-44" value="&lt;font style=&quot;font-size: 14px;&quot;&gt;&lt;span style=&quot;font-size: 17px;&quot;&gt;Ray&lt;/span&gt;&lt;br&gt;&lt;/font&gt;" style="whiteSpace=wrap;html=1;aspect=fixed;rotation=0;fontSize=17;fontFamily=Verdana;fontStyle=1;fillColor=#383E47;strokeColor=#E8B256;fontColor=#AFB9C7;rounded=1;strokeWidth=2;" vertex="1" parent="1">
          <mxGeometry x="676" y="374" width="40" height="40" as="geometry" />
        </mxCell>
        <mxCell id="M6nRL8EeRbIrklFfgZ3Z-46" value="" style="whiteSpace=wrap;html=1;aspect=fixed;rotation=-60;fontSize=17;fontFamily=Verdana;fontStyle=1;fillColor=#383E47;strokeColor=#E8B256;fontColor=#AFB9C7;rounded=1;strokeWidth=2;" vertex="1" parent="1">
          <mxGeometry x="658" y="449" width="60" height="40" as="geometry" />
        </mxCell>
        <mxCell id="M6nRL8EeRbIrklFfgZ3Z-47" value="" style="rounded=0;whiteSpace=wrap;html=1;rotation=90;" vertex="1" parent="1">
          <mxGeometry x="656" y="276.5" width="96" height="50" as="geometry" />
        </mxCell>
      </root>
    </mxGraphModel>
  </diagram>
</mxfile>
